# xmcd CD database file
#
# Track frame offsets:
#	150
#	22982
#	43307
#	60194
#	111691
#	126814
#	160654
#	177962
#	212330
#	231510
#
# Disc length: 3298 seconds
#
# Revision: 0
# Processed by: cddbd v1.5.2PL0 Copyright (c) Steve Scherf et al.
# Submitted via: CDex 1.51
#
DISCID=840ce00a
DTITLE=Joe Ely - Live chicago 1987
DYEAR=1987
DGENRE=Country
TTITLE0=Drivin To The Poorhouse
TTITLE1=Don't Put A Lock On My Heart
TTITLE2=Me And Billy The Kid
TTITLE3=Letter To L.A.
TTITLE4=Lord Of The Highway
TTITLE5=Cool Rockin' Loretta
TTITLE6=Musta Notta Gotta Lotta
TTITLE7=Fingernails
TTITLE8=My Baby Thinks She's French
TTITLE9=Oh Boy!
EXTD=YEAR: 1987
EXTT0=
EXTT1=
EXTT2=
EXTT3=
EXTT4=
EXTT5=
EXTT6=
EXTT7=
EXTT8=
EXTT9=
PLAYORDER=
